<?xml version="1.0" encoding="utf-8"?>
<!-- Generator: Adobe Illustrator 21.0.0, SVG Export Plug-In . SVG Version: 6.00 Build 0)  -->
<svg version="1.1" id="Layer_1" xmlns="http://www.w3.org/2000/svg" xmlns:xlink="http://www.w3.org/1999/xlink" x="0px" y="0px"
	 viewBox="0 0 512 512" enable-background="new 0 0 512 512" xml:space="preserve">
<g>
	<g>
		<path fill="#FFFFFF" d="M390.092,112.304c-1.331-1.801-3.76-2.394-5.77-1.407l-59.489,29.163v-21.378
			c0-1.282-0.531-2.506-1.465-3.382c-0.935-0.877-2.194-1.327-3.469-1.245c-0.63,0.041-6.316,0.525-12.105,5.002
			c-0.986,0.763-1.89,1.58-2.726,2.438v-1.113c0-1.278-0.528-2.499-1.457-3.376c-0.931-0.876-2.184-1.331-3.457-1.252
			c-0.639,0.038-14.713,1.077-21.097,16.364c-7.343-0.421-23.709-0.007-36.986,10.085c-10.278,7.813-16.422,19.635-18.263,35.138
			c-2.412,20.347-0.302,36.055,1.24,47.524c2.113,15.717,2.55,22.257-4.639,27.668c-5.715-2.92-11.957-4.806-18.347-5.547
			c-4.82-20.24-18.366-31.332-38.475-31.332c-2.561,0-4.636,2.076-4.636,4.636c0,2.561,2.076,4.636,4.636,4.636
			c9.558,0,17.031,3.059,22.211,9.092c3.311,3.856,5.348,8.519,6.601,12.734c-5.028,0.329-9.987,1.427-14.743,3.239
			c-9.686-8.329-20.942-9.157-31.25-2.164c-2.119,1.438-2.672,4.321-1.234,6.44s4.321,2.672,6.44,1.234
			c5.646-3.83,11.244-4.115,16.704-0.878c-3.548,2.208-6.905,4.846-9.998,7.886c-9.863,9.693-15.697,22.133-16.429,35.027
			c-0.835,14.607,4.223,28.784,13.961,39.491c-4.496,7.387-12.532,11.033-19.001,12.82c3.625-8.177,5.979-21.628-1.34-41.127
			c-9.65-25.7-6.27-65.843,12.556-79.081c2.094-1.473,2.598-4.365,1.125-6.459c-1.472-2.095-4.365-2.598-6.459-1.126
			c-10.988,7.728-18.396,22.418-20.857,41.366c-2.138,16.451-0.284,34.604,4.956,48.56c10.645,28.359-2.263,40.203-2.778,40.661
			c-1.507,1.272-2.045,3.357-1.341,5.2c0.688,1.799,2.413,2.981,4.33,2.981c0.045,0,0.092-0.001,0.139-0.002
			c1.055-0.031,24.25-0.922,35.588-17.399c7.628,7.628,27.076,12.185,29.513,12.835v40.687c0,2.561,2.076,4.636,4.636,4.636h16.525
			h14.93c2.561,0,4.636-2.076,4.636-4.636v-41.349c4.221,0.403,8.362,0.573,12.317,0.573c11.224,0,20.943-1.332,26.766-2.357v43.134
			c0,2.561,2.076,4.636,4.636,4.636h35.645c2.561,0,4.636-2.076,4.636-4.636v-66.707c7.983-7.614,13.492-16.585,16.385-26.699
			c0.705-2.462-0.72-5.029-3.182-5.733c-2.461-0.704-5.029,0.72-5.733,3.182c-2.602,9.093-7.755,17.126-15.32,23.878
			c-4.028,3.599-8.806,6.879-14.202,9.75c-1.513,0.805-2.46,2.379-2.46,4.094v39.905h-11.134v-53.085
			c0-2.561-2.076-4.636-4.636-4.636c-2.561,0-4.636,2.076-4.636,4.636v18.845c-7.337,1.377-25.035,3.998-43.062,1.417
			c-5.045-0.723-9.801-1.812-14.137-3.239c-2.432-0.801-5.053,0.522-5.854,2.954c-0.152,0.462-0.227,0.931-0.233,1.393v32.314
			h-7.252V352.6c0-2.217-1.574-4.125-3.749-4.55c-0.053-0.01-15.865-4.764-17.345-5.307c-5.717-2.096-10.984-5.357-15.428-9.58
			c-9.577-9.086-14.637-21.878-13.882-35.098c1.247-21.945,20.869-41.236,42.856-42.125c1.326-0.055,2.678-0.051,4.012,0.011
			c7.137,0.341,14.161,2.419,20.318,6.01c2.283,1.328,4.455,2.864,6.463,4.569c6.418,5.438,15.625,6.466,22.907,2.561
			c0.462-0.247,1.568-0.929,1.568-0.929c19.096-11.719,14.909-28.739,10.475-46.758c-1.597-6.493-3.249-13.207-4.232-20.544
			c-0.34-2.539-2.672-4.32-5.211-3.98c-2.538,0.34-4.32,2.673-3.98,5.211c1.049,7.834,2.839,15.109,4.419,21.528
			c4.729,19.223,6.437,28.81-6.339,36.651c-0.144,0.09-0.829,0.508-1.076,0.645c-3.96,2.123-8.998,1.537-12.532-1.457
			c-0.714-0.606-1.451-1.19-2.199-1.76c9.033-8.764,7.51-20.163,5.642-34.065c-1.558-11.59-3.497-26.014-1.222-45.196
			c1.53-12.88,6.445-22.573,14.611-28.806c9.799-7.48,22.206-8.434,28.956-8.309c-0.185,1.262-0.336,2.553-0.425,3.89
			c-3.359,0.931-8.435,2.796-13.496,6.394c-7.881,5.601-17.275,16.567-17.275,36.997c0,2.561,2.076,4.636,4.636,4.636
			s4.636-2.076,4.636-4.636c0-31.047,25.535-34.9,26.603-35.047c2.314-0.296,4.047-2.266,4.047-4.599
			c0-3.955,0.455-7.517,1.352-10.585c1.995-6.808,5.932-10.16,9.133-11.803v20.798c0,0.114,0.009,0.226,0.017,0.339
			c-0.015,0.553-0.017,1.074-0.017,1.491c0,2.561,2.076,4.636,4.636,4.636c2.561,0,4.636-2.076,4.636-4.636
			c0-0.56,0.005-1.101,0.028-1.694c0.284-9.695,2.978-16.699,8.006-20.82c0.831-0.681,1.663-1.226,2.456-1.662v19.872
			c-4.095,2.931-6.824,7.44-7.464,12.546c-0.76,6.065,1.548,12.042,6.176,15.996c0.134,0.117,0.26,0.225,0.375,0.319
			c3.282,2.699,7.284,4.024,11.291,4.024c4.13-0.001,8.261-1.413,11.61-4.171c0.702,1.023,1.404,2.035,2.105,3.042
			c-6.357,2.003-10.786,8.154-10.335,15.093c0.159,2.453,2.199,4.335,4.622,4.335c0.101,0,0.204-0.003,0.306-0.01
			c2.555-0.166,4.492-2.372,4.326-4.927c-0.198-3.046,2.117-5.689,5.165-5.891c0.767-0.052,1.539,0.068,2.264,0.333
			c4.663,6.423,9.26,12.447,13.75,18.013c3.435,4.255,5.883,8.637,7.332,13.005c-0.44,0.132-0.873,0.332-1.287,0.619
			c-1.637,1.133-2.355,3.245-1.787,5.148c0.576,1.928,2.421,3.294,4.435,3.294c0.069,0,0.135-0.014,0.204-0.017
			c0.054,5.043-1.303,9.924-4.104,14.41c-7.463,11.944-22.79,17.608-38.143,14.092c-3.759-0.863-7.489-2.266-11.087-4.171
			c-30.653-16.244-43.573-35.346-45.444-47.804c-1.428-9.511,2.259-18.747,10.962-27.449c1.811-1.811,1.811-4.746,0-6.557
			s-4.747-1.811-6.557,0c-10.897,10.897-15.464,22.801-13.575,35.383c4.235,28.206,39.55,48.939,50.273,54.622
			c3.438,1.821,6.99,3.255,10.593,4.293c2.175,5.273,4.57,13.07,4.856,22.302c0.078,2.511,2.138,4.493,4.632,4.493
			c0.049,0,0.098-0.001,0.147-0.002c2.56-0.079,4.57-2.219,4.491-4.778c-0.241-7.776-1.782-14.65-3.567-20.145
			c1.105,0.075,2.206,0.116,3.301,0.116c15.222-0.001,29.278-7.149,36.983-19.481c8.921-14.279,6.888-31.922-5.44-47.194
			c-7.366-9.131-15.036-19.534-22.829-30.956l45.603-48.581C391.276,116.601,391.424,114.105,390.092,112.304z M301.769,341.445
			c2.078-1.187,4.065-2.436,5.966-3.738v40.905h-5.966V341.445z M301.769,387.885h5.966v4.42h-5.966V387.885z M281.362,387.885
			h11.134v4.42h-11.134V387.885z M218.076,353.1c1.84,0.456,3.726,0.863,5.656,1.218v24.894h-5.656V353.1z M218.076,388.485h5.656
			v3.82h-5.656V388.485z M201.552,388.485h7.252v3.82h-7.252V388.485z M320.52,166.577c-0.055-0.045-0.106-0.091-0.161-0.139
			c-0.016-0.015-0.034-0.029-0.05-0.043c-2.292-1.951-3.389-4.794-3.012-7.803c0.383-3.054,2.184-5.58,4.94-6.931l0.284-0.139
			c-0.208,4.299,0.23,9.912,2.157,16.885C323.19,168.187,321.749,167.587,320.52,166.577z M343.3,154.16l-9.983,10.636
			c-2.502-9.841-1.37-15.857-0.648-18.248l11.15-5.467C342.93,145.076,342.473,149.69,343.3,154.16z M352.64,144.21
			c0.66-3.49,1.833-6.722,2.755-8.805l10.207-5.004L352.64,144.21z"/>
	</g>
</g>
<g>
	<g>
		<path fill="#FFFFFF" d="M339.303,222.003c-3.121,2.766-1.086,8.101,3.079,8.101c2.308,0,4.329-1.771,4.6-4.068
			C347.474,221.889,342.446,219.219,339.303,222.003z"/>
	</g>
</g>
<g>
	<g>
		<path fill="#FFFFFF" d="M322.313,193.896c-0.259-3.947-2.04-7.556-5.014-10.163s-6.785-3.899-10.731-3.641
			c-8.147,0.535-14.339,7.598-13.804,15.745c0.161,2.452,2.2,4.333,4.622,4.333c0.102,0,0.205-0.003,0.308-0.01
			c2.555-0.168,4.491-2.375,4.323-4.93c-0.2-3.045,2.114-5.685,5.158-5.885c1.475-0.098,2.9,0.386,4.01,1.361
			c1.112,0.974,1.776,2.323,1.874,3.798c0.168,2.555,2.378,4.491,4.931,4.322C320.546,198.659,322.481,196.451,322.313,193.896z"/>
	</g>
</g>
</svg>
